<svg width="71" height="70" viewBox="0 0 71 70" fill="none" xmlns="http://www.w3.org/2000/svg">
<mask id="mask0_21_11" style="mask-type:luminance" maskUnits="userSpaceOnUse" x="0" y="0" width="71" height="70">
<path d="M0 0H70.8V69.6495H0V0Z" fill="white"/>
</mask>
<g mask="url(#mask0_21_11)">
<mask id="mask1_21_11" style="mask-type:luminance" maskUnits="userSpaceOnUse" x="0" y="0" width="71" height="70">
<path d="M28.32 69.0417C28.32 69.3662 28.0545 69.6317 27.73 69.6317H23.01C22.6855 69.6317 22.42 69.3662 22.42 69.0417V53.6999C22.42 53.3754 22.6855 53.1094 23.01 53.1094C23.3345 53.1094 23.6 53.3754 23.6 53.6999V68.4513H27.73C28.0545 68.4513 28.32 68.7168 28.32 69.0417ZM69.03 28.9166C68.7055 28.9166 68.44 29.1821 68.44 29.5066V46.029H57.23C56.9055 46.029 56.64 46.2945 56.64 46.619C56.64 46.9435 56.9055 47.209 57.23 47.209H69.03C69.3545 47.209 69.62 46.9435 69.62 46.619V29.5066C69.62 29.1821 69.3545 28.9166 69.03 28.9166ZM70.8 23.9897C70.8 24.9927 70.1658 25.8629 69.266 26.1874C68.2778 28.1939 66.4193 29.6541 64.2215 30.0966L59.236 31.1001C57.4955 31.4541 56.1238 32.7964 55.7403 34.5226L54.988 37.9155H55.9615C57.2448 37.9155 58.3953 38.6825 58.882 39.8478L59.8555 40.3345C60.062 40.4378 60.18 40.6443 60.18 40.8655C60.18 43.1375 58.3215 44.996 56.05 44.996H55.46V52.0179C55.46 54.4521 54.6193 56.8121 53.1 58.6858V66.283L54.0293 66.637C54.3243 66.755 54.575 66.9468 54.752 67.2123C54.929 67.4778 55.0175 67.7728 55.0175 68.0973C55.0175 68.9532 54.3243 69.6465 53.4688 69.6465H50.15C49.8255 69.6465 49.56 69.381 49.56 69.0565V68.053C49.265 68.968 48.4095 69.6465 47.4065 69.6465C47.4065 69.6465 33.6005 69.6465 33.5858 69.6465C31.447 69.617 29.4115 68.7315 27.9808 67.227C26.5943 65.7668 25.8863 63.8635 25.9748 61.8428C26.0633 59.9396 26.845 58.1401 28.202 56.7826L29.0133 55.9714C29.2788 55.7059 29.4558 55.3666 29.5 55.0274C29.559 54.5701 29.4263 54.1276 29.1165 53.7884C28.8215 53.4491 28.3938 53.2569 27.9365 53.2569H26.55C26.078 53.2569 25.6355 53.0799 25.2963 52.7407C24.957 52.4014 24.78 51.9589 24.78 51.4869C24.78 50.5134 25.5765 49.7169 26.55 49.7169H26.5795C25.5765 49.3035 24.5293 48.9495 23.4673 48.684C22.2873 53.0504 19.1603 56.7089 15.0303 58.5383L11.8295 59.9691V64.6158L13.2898 65.339C14.0568 65.7225 14.5435 66.5043 14.5435 67.3598C14.5435 68.6135 13.5258 69.617 12.2868 69.617H2.4485C1.75525 69.617 1.18 69.0417 1.18 68.348V57.9336C1.18 56.2074 2.0355 54.5996 3.46625 53.6556L3.481 53.6409C4.5725 52.9029 5.23625 51.6787 5.23625 50.3512V45.8372C5.23625 42.8867 6.2245 40.01 8.00925 37.6643L6.47525 35.1126C5.782 33.9616 5.369 32.6784 5.26575 31.4099C5.08875 29.0641 5.85575 26.8369 7.44875 25.1107C8.00925 24.5059 8.6435 24.0044 9.33675 23.5914H1.18V46.0142H3.54C3.8645 46.0142 4.13 46.2797 4.13 46.6042C4.13 46.9287 3.8645 47.1942 3.54 47.1942H0.59C0.2655 47.1942 0 46.9287 0 46.6042V23.0162C0 22.6917 0.2655 22.4262 0.59 22.4262H22.42V0.593418C22.42 0.268918 22.6855 0.00341797 23.01 0.00341797H46.61C46.9345 0.00341797 47.2 0.268918 47.2 0.593418V22.4262C47.5245 22.4262 47.79 22.6917 47.79 23.0162C47.79 23.3407 47.5245 23.6062 47.2 23.6062H46.61C46.2855 23.6062 46.02 23.3407 46.02 23.0162V1.18342H23.6V23.0162C23.6 23.3407 23.3345 23.6062 23.01 23.6062H17.6115C18.5555 24.1814 19.3668 24.9632 20.001 25.9072L20.2223 26.2464C20.8123 27.1319 20.5763 28.3414 19.6765 28.9461C19.2488 29.2411 18.7325 29.3296 18.2163 29.2411C17.7 29.1379 17.2723 28.8429 16.9773 28.4151L16.7855 28.1349C16.048 27.0286 14.8533 26.3649 13.5848 26.3501C12.3458 26.3354 11.151 26.8516 10.2955 27.7514C9.44 28.6659 9.01225 29.8754 9.1155 31.1296C9.1745 31.7934 9.39575 32.4719 9.77925 33.1061L10.8708 34.9208C11.446 34.5078 12.036 34.1538 12.6555 33.8436L12.7883 33.7699C15.2368 32.5456 17.9655 32.1326 20.6648 32.5899L24.7948 33.2831H36.167C40.5773 33.2831 44.6335 30.8789 46.7575 26.9991C47.7458 25.1844 52.746 15.655 53.749 13.7666C53.9998 13.2946 54.4865 12.9996 55.0175 12.9996C55.814 12.9996 56.4483 13.6486 56.4483 14.4303V17.7495C58.3953 17.9265 60.18 18.989 61.2715 20.641L61.6255 21.172L67.1125 22.0865C67.496 21.821 67.9533 21.6735 68.44 21.6735C69.7528 21.644 70.8 22.7064 70.8 23.9897ZM22.3315 48.4037C21.0925 48.1677 19.8388 48.0202 18.585 47.9907C18.3785 51.3099 16.4463 54.2456 13.4373 55.7501L7.788 58.5826V64.6158L9.24825 65.339C9.617 65.5308 9.9415 65.811 10.1628 66.1798C10.4578 66.6518 10.561 67.227 10.4578 67.7728C10.4135 68.0088 10.325 68.2448 10.2218 68.4513H12.3015C12.8915 68.4513 13.3783 67.9645 13.3783 67.3745C13.3783 66.9615 13.1423 66.5928 12.7735 66.401L10.9888 65.516C10.7823 65.4128 10.6643 65.2063 10.6643 64.985V59.5708C10.6643 59.3348 10.797 59.1283 11.0183 59.0251L14.573 57.4468C18.3638 55.7649 21.2253 52.4014 22.3315 48.4037ZM33.04 54.9536C33.0105 56.2664 32.4795 57.4911 31.5503 58.4203L30.6948 59.2758C29.9573 60.0133 29.5295 61.0016 29.5 62.0345C29.4705 63.067 29.854 64.0553 30.5768 64.7928C31.2258 65.457 32.096 65.8995 33.04 66.0323V60.9573C33.04 58.1253 33.8955 55.4256 35.4 53.1684C34.3823 53.0062 33.394 52.7554 32.4353 52.4162C32.8483 53.1979 33.0695 54.0539 33.04 54.9536ZM48.4833 67.3745C48.4833 67.168 48.4243 66.9763 48.321 66.814C48.2178 66.637 48.0703 66.5043 47.8785 66.4158L46.0938 65.5308C46.0348 65.5013 45.9758 65.457 45.9315 65.4128L45.9168 65.4275L44.9433 66.106H45.43C46.4035 66.106 47.2 66.9025 47.2 67.876C47.2 68.0825 47.1558 68.2743 47.0968 68.466H47.4065C47.9965 68.4513 48.4833 67.9645 48.4833 67.3745ZM49.56 66.696V61.6068L47.9965 62.6393C47.7753 63.244 47.4508 63.8045 47.0525 64.3208L47.0083 64.6453L48.4095 65.3538C48.793 65.5455 49.1028 65.8258 49.324 66.1945C49.4273 66.342 49.501 66.519 49.56 66.696ZM55.9615 39.0808H53.69C53.4983 39.0808 53.3065 38.9775 53.2033 38.8153L51.743 36.6171L50.74 45.6307C50.7105 45.852 50.563 46.0437 50.3565 46.1175L42.775 48.8315C37.6568 50.6609 34.22 55.5436 34.22 60.9721V66.6813C34.22 66.8435 34.161 66.991 34.043 67.0943C33.925 67.2123 33.7775 67.2713 33.6153 67.2713C32.1255 67.2565 30.7095 66.6518 29.7065 65.6193C28.7625 64.6453 28.2758 63.362 28.3053 62.005C28.3495 60.6623 28.8953 59.3938 29.8393 58.4351L30.6948 57.5796C31.4028 56.8711 31.8158 55.9124 31.8453 54.9094C31.8748 53.8621 31.4765 52.8734 30.739 52.1064C29.972 51.3247 28.91 50.8674 27.8185 50.8674H26.55C26.2255 50.8674 25.96 51.1329 25.96 51.4574C25.96 51.6197 26.019 51.7672 26.137 51.8704C26.2403 51.9737 26.3878 52.0474 26.55 52.0474H27.9365C28.7183 52.0474 29.4705 52.3867 30.0015 52.9767C30.5178 53.5671 30.7685 54.3636 30.6653 55.1454C30.5915 55.7354 30.2965 56.3106 29.8393 56.7679L29.028 57.5796C27.8923 58.7153 27.2138 60.2346 27.1548 61.8428C27.081 63.539 27.6858 65.1325 28.851 66.3568C30.0753 67.64 31.8158 68.3923 33.6448 68.407C33.6595 68.407 45.4448 68.407 45.4448 68.407C45.7693 68.407 46.0348 68.1415 46.0348 67.817C46.0348 67.4925 45.7693 67.227 45.4448 67.227H36.0048C35.6803 67.227 35.4148 66.9615 35.4148 66.637C35.4148 66.3125 35.6803 66.047 36.0048 66.047H42.893L45.253 64.4093C46.4773 63.48 47.2148 62.0198 47.2148 60.4853C47.2148 57.7713 45.0023 55.5731 42.303 55.5731C41.9785 55.5731 41.713 55.3076 41.713 54.9831C41.713 54.6586 41.9785 54.3931 42.303 54.3931C45.666 54.3931 48.3948 57.1219 48.3948 60.4853C48.3948 60.6476 48.38 60.7951 48.38 60.9573L49.8403 59.9986C50.0173 59.8806 50.2533 59.8658 50.445 59.9691C50.6368 60.0723 50.7548 60.2641 50.7548 60.4853V68.4513H53.4835C53.69 68.4513 53.8523 68.289 53.8523 68.0825C53.8523 67.994 53.8228 67.9203 53.7933 67.876C53.749 67.817 53.69 67.7728 53.6163 67.7433L52.3183 67.2418C52.097 67.1533 51.9348 66.932 51.9348 66.696V58.4793C51.9348 58.3466 51.979 58.1991 52.0675 58.0958C53.4983 56.3991 54.2948 54.2456 54.2948 52.0179V44.406C54.2948 44.0815 54.5603 43.816 54.8848 43.816H56.0648C57.5693 43.816 58.823 42.6802 59 41.2195L58.174 40.8065C58.0413 40.7328 57.9233 40.6148 57.879 40.4673C57.584 39.6265 56.817 39.0808 55.9615 39.0808ZM67.8795 26.2612C66.8618 25.9957 66.1095 25.0812 66.1095 23.9897C66.1095 23.6799 66.1685 23.3849 66.2865 23.1194L61.1978 22.2635C61.0355 22.234 60.888 22.1455 60.7995 22.0127L60.3128 21.2752C59.3245 19.7855 57.6725 18.8857 55.8878 18.8857C55.5633 18.8857 55.2978 18.6202 55.2978 18.2953V14.4156C55.2978 14.2828 55.1798 14.1648 55.047 14.1648C54.9585 14.1648 54.87 14.2091 54.8258 14.2976C53.4245 16.953 48.8078 25.7744 47.8343 27.5596C45.5185 31.8229 41.064 34.4636 36.2113 34.4636H24.78C24.7505 34.4636 24.721 34.4636 24.6768 34.4488L20.5025 33.7551C18.0393 33.3421 15.576 33.7109 13.3488 34.8323L13.216 34.9061C12.4785 35.2748 11.7558 35.7321 11.092 36.2483C10.9593 36.3516 10.7823 36.3958 10.62 36.3663C10.4578 36.3368 10.3103 36.2336 10.2218 36.0861L8.791 33.7109C8.319 32.9291 8.03875 32.0589 7.965 31.2181C7.83225 29.6394 8.378 28.0906 9.45475 26.9401C10.5315 25.7892 12.0508 25.1402 13.6143 25.1697C15.281 25.1844 16.8298 26.0547 17.7885 27.4711L17.9803 27.7514C18.0983 27.9284 18.2605 28.0316 18.467 28.0759C18.6735 28.1201 18.8653 28.0759 19.0423 27.9579C19.3963 27.7219 19.4848 27.2499 19.2488 26.8959L19.0275 26.5566C17.8033 24.7272 15.753 23.6209 13.5553 23.6209C11.5788 23.6209 9.676 24.4617 8.33375 25.9072C6.97675 27.3826 6.313 29.3001 6.4605 31.3066C6.549 32.3834 6.903 33.4896 7.50775 34.4931L9.263 37.4136C9.39575 37.6201 9.36625 37.9008 9.21875 38.0925C7.434 40.2755 6.44575 43.0342 6.44575 45.8372V50.3512C6.44575 52.0769 5.59025 53.6704 4.1595 54.6291L4.14475 54.6439C3.05325 55.3814 2.3895 56.6056 2.3895 57.9336V68.348C2.3895 68.3923 2.43375 68.4365 2.478 68.4365H8.201C8.74675 68.4365 9.21875 68.053 9.30725 67.5515C9.3515 67.286 9.30725 67.0058 9.15975 66.7845C9.0565 66.6075 8.909 66.4748 8.71725 66.3863L6.9325 65.5013C6.726 65.398 6.608 65.1915 6.608 64.9698V58.1991C6.608 57.9778 6.74075 57.7713 6.9325 57.6681L12.921 54.6734C15.7088 53.2864 17.4345 50.4839 17.4345 47.3712C17.4345 47.0467 17.7 46.7812 18.0245 46.7812C19.8388 46.7812 21.653 46.9877 23.423 47.4155C25.193 47.8285 26.904 48.4627 28.5413 49.274L31.093 50.5577C32.7008 51.3689 34.4265 51.8852 36.226 52.0917C36.993 51.1477 37.878 50.3069 38.8663 49.5842L39.0728 45.9995C39.0875 45.675 39.3678 45.4237 39.6923 45.4385C40.0168 45.4532 40.2675 45.734 40.2528 46.0585L40.0905 48.7725C40.8133 48.3595 41.5803 47.9907 42.3915 47.7105L49.619 45.1287L50.6073 36.2336C50.6515 35.7763 50.976 35.4076 51.4333 35.3043C51.8758 35.2011 52.333 35.3781 52.5985 35.7616L53.8523 37.6496L54.6045 34.2718C55.0913 32.0884 56.817 30.3921 59.0295 29.9491L64.015 28.9461C65.608 28.6216 67.0093 27.6334 67.8795 26.2612ZM69.62 23.9897C69.62 23.3407 69.1038 22.8244 68.4548 22.8244C67.8058 22.8244 67.2895 23.3407 67.2895 23.9897C67.2895 24.6387 67.8058 25.1549 68.4548 25.1549C69.1038 25.1549 69.62 24.6387 69.62 23.9897Z" fill="white"/>
</mask>
<g mask="url(#mask1_21_11)">
<path d="M0 0.00341797V69.6465H70.8V0.00341797H0Z" fill="url(#paint0_linear_21_11)"/>
</g>
</g>
<defs>
<linearGradient id="paint0_linear_21_11" x1="-4.97887" y1="4.98277" x2="65.247" y2="75.2" gradientUnits="userSpaceOnUse">
<stop stop-color="#A01FFF"/>
<stop offset="0.125" stop-color="#A01FFF"/>
<stop offset="0.15625" stop-color="#A01FFF"/>
<stop offset="0.164062" stop-color="#A01FFF"/>
<stop offset="0.167969" stop-color="#9F20FF"/>
<stop offset="0.171875" stop-color="#9E20FF"/>
<stop offset="0.175781" stop-color="#9E21FF"/>
<stop offset="0.179688" stop-color="#9D21FF"/>
<stop offset="0.183594" stop-color="#9D22FF"/>
<stop offset="0.1875" stop-color="#9C22FF"/>
<stop offset="0.191406" stop-color="#9B23FF"/>
<stop offset="0.195312" stop-color="#9B23FF"/>
<stop offset="0.199219" stop-color="#9A24FF"/>
<stop offset="0.203125" stop-color="#9924FF"/>
<stop offset="0.207031" stop-color="#9925FF"/>
<stop offset="0.210938" stop-color="#9825FF"/>
<stop offset="0.214844" stop-color="#9726FF"/>
<stop offset="0.21875" stop-color="#9726FF"/>
<stop offset="0.222656" stop-color="#9627FF"/>
<stop offset="0.226562" stop-color="#9627FF"/>
<stop offset="0.230469" stop-color="#9528FF"/>
<stop offset="0.234375" stop-color="#9428FF"/>
<stop offset="0.238281" stop-color="#9429FF"/>
<stop offset="0.242188" stop-color="#9329FF"/>
<stop offset="0.246094" stop-color="#922AFF"/>
<stop offset="0.25" stop-color="#922AFF"/>
<stop offset="0.253906" stop-color="#912BFF"/>
<stop offset="0.257812" stop-color="#902BFF"/>
<stop offset="0.261719" stop-color="#902CFF"/>
<stop offset="0.265625" stop-color="#8F2CFF"/>
<stop offset="0.269531" stop-color="#8F2DFF"/>
<stop offset="0.273438" stop-color="#8E2DFF"/>
<stop offset="0.277344" stop-color="#8D2EFF"/>
<stop offset="0.28125" stop-color="#8D2EFF"/>
<stop offset="0.285156" stop-color="#8C2FFF"/>
<stop offset="0.289062" stop-color="#8B30FF"/>
<stop offset="0.292969" stop-color="#8B30FF"/>
<stop offset="0.296875" stop-color="#8A31FF"/>
<stop offset="0.300781" stop-color="#8931FF"/>
<stop offset="0.304688" stop-color="#8932FF"/>
<stop offset="0.308594" stop-color="#8832FF"/>
<stop offset="0.3125" stop-color="#8833FF"/>
<stop offset="0.316406" stop-color="#8733FF"/>
<stop offset="0.320312" stop-color="#8634FF"/>
<stop offset="0.324219" stop-color="#8534FF"/>
<stop offset="0.328125" stop-color="#8535FF"/>
<stop offset="0.332031" stop-color="#8435FF"/>
<stop offset="0.335937" stop-color="#8336FF"/>
<stop offset="0.339844" stop-color="#8237FF"/>
<stop offset="0.34375" stop-color="#8237FF"/>
<stop offset="0.347656" stop-color="#8138FF"/>
<stop offset="0.351562" stop-color="#8038FF"/>
<stop offset="0.355469" stop-color="#7F39FF"/>
<stop offset="0.359375" stop-color="#7F3AFF"/>
<stop offset="0.363281" stop-color="#7E3AFF"/>
<stop offset="0.367188" stop-color="#7D3BFF"/>
<stop offset="0.371094" stop-color="#7C3CFF"/>
<stop offset="0.375" stop-color="#7C3CFF"/>
<stop offset="0.378906" stop-color="#7B3DFF"/>
<stop offset="0.382812" stop-color="#7A3DFF"/>
<stop offset="0.386719" stop-color="#793EFF"/>
<stop offset="0.390625" stop-color="#783FFF"/>
<stop offset="0.394531" stop-color="#783FFF"/>
<stop offset="0.398437" stop-color="#7740FF"/>
<stop offset="0.402344" stop-color="#7640FF"/>
<stop offset="0.40625" stop-color="#7541FF"/>
<stop offset="0.410156" stop-color="#7542FF"/>
<stop offset="0.414062" stop-color="#7442FF"/>
<stop offset="0.417969" stop-color="#7343FF"/>
<stop offset="0.421875" stop-color="#7243FF"/>
<stop offset="0.425781" stop-color="#7244FF"/>
<stop offset="0.429688" stop-color="#7145FF"/>
<stop offset="0.433594" stop-color="#7045FF"/>
<stop offset="0.4375" stop-color="#6F46FF"/>
<stop offset="0.441406" stop-color="#6F46FF"/>
<stop offset="0.445312" stop-color="#6E47FF"/>
<stop offset="0.449219" stop-color="#6D48FF"/>
<stop offset="0.453125" stop-color="#6C48FF"/>
<stop offset="0.457031" stop-color="#6C49FF"/>
<stop offset="0.460938" stop-color="#6B49FF"/>
<stop offset="0.464844" stop-color="#6A4AFF"/>
<stop offset="0.46875" stop-color="#694BFF"/>
<stop offset="0.472656" stop-color="#694BFF"/>
<stop offset="0.476562" stop-color="#684CFF"/>
<stop offset="0.480469" stop-color="#674CFF"/>
<stop offset="0.484375" stop-color="#664DFF"/>
<stop offset="0.488281" stop-color="#664EFF"/>
<stop offset="0.492187" stop-color="#654EFF"/>
<stop offset="0.496094" stop-color="#644FFF"/>
<stop offset="0.5" stop-color="#634FFF"/>
<stop offset="0.503906" stop-color="#6250FF"/>
<stop offset="0.507812" stop-color="#6251FF"/>
<stop offset="0.511719" stop-color="#6151FF"/>
<stop offset="0.515625" stop-color="#6052FF"/>
<stop offset="0.519531" stop-color="#5F52FF"/>
<stop offset="0.523438" stop-color="#5F53FF"/>
<stop offset="0.527344" stop-color="#5E54FF"/>
<stop offset="0.53125" stop-color="#5D54FF"/>
<stop offset="0.535156" stop-color="#5C55FF"/>
<stop offset="0.539062" stop-color="#5C55FF"/>
<stop offset="0.542969" stop-color="#5B56FF"/>
<stop offset="0.546875" stop-color="#5A57FF"/>
<stop offset="0.550781" stop-color="#5957FF"/>
<stop offset="0.554687" stop-color="#5958FF"/>
<stop offset="0.558594" stop-color="#5858FF"/>
<stop offset="0.5625" stop-color="#5759FF"/>
<stop offset="0.566406" stop-color="#565AFF"/>
<stop offset="0.570312" stop-color="#565AFF"/>
<stop offset="0.574219" stop-color="#555BFF"/>
<stop offset="0.578125" stop-color="#545BFF"/>
<stop offset="0.582031" stop-color="#535CFF"/>
<stop offset="0.585938" stop-color="#535DFF"/>
<stop offset="0.589844" stop-color="#525DFF"/>
<stop offset="0.59375" stop-color="#515EFF"/>
<stop offset="0.597656" stop-color="#505EFF"/>
<stop offset="0.601562" stop-color="#505FFF"/>
<stop offset="0.605469" stop-color="#4F60FF"/>
<stop offset="0.609375" stop-color="#4E60FF"/>
<stop offset="0.613281" stop-color="#4D61FF"/>
<stop offset="0.617188" stop-color="#4C61FF"/>
<stop offset="0.621094" stop-color="#4C62FF"/>
<stop offset="0.625" stop-color="#4B63FF"/>
<stop offset="0.628906" stop-color="#4A63FF"/>
<stop offset="0.632812" stop-color="#4964FF"/>
<stop offset="0.636719" stop-color="#4964FF"/>
<stop offset="0.640625" stop-color="#4865FF"/>
<stop offset="0.644531" stop-color="#4766FF"/>
<stop offset="0.648438" stop-color="#4666FF"/>
<stop offset="0.652344" stop-color="#4567FF"/>
<stop offset="0.65625" stop-color="#4568FF"/>
<stop offset="0.660156" stop-color="#4468FF"/>
<stop offset="0.664062" stop-color="#4369FF"/>
<stop offset="0.667969" stop-color="#426AFF"/>
<stop offset="0.671875" stop-color="#416AFF"/>
<stop offset="0.675781" stop-color="#406BFF"/>
<stop offset="0.679688" stop-color="#406CFF"/>
<stop offset="0.683594" stop-color="#3F6CFF"/>
<stop offset="0.6875" stop-color="#3E6DFF"/>
<stop offset="0.691406" stop-color="#3D6EFF"/>
<stop offset="0.695312" stop-color="#3C6EFF"/>
<stop offset="0.699219" stop-color="#3C6FFF"/>
<stop offset="0.703125" stop-color="#3B6FFF"/>
<stop offset="0.707031" stop-color="#3A70FF"/>
<stop offset="0.710938" stop-color="#3971FF"/>
<stop offset="0.714844" stop-color="#3871FF"/>
<stop offset="0.71875" stop-color="#3772FF"/>
<stop offset="0.722656" stop-color="#3773FF"/>
<stop offset="0.726562" stop-color="#3673FF"/>
<stop offset="0.730469" stop-color="#3574FF"/>
<stop offset="0.734375" stop-color="#3475FF"/>
<stop offset="0.738281" stop-color="#3375FF"/>
<stop offset="0.742188" stop-color="#3276FF"/>
<stop offset="0.746094" stop-color="#3277FF"/>
<stop offset="0.75" stop-color="#3177FF"/>
<stop offset="0.753906" stop-color="#3078FF"/>
<stop offset="0.757812" stop-color="#2F79FF"/>
<stop offset="0.761719" stop-color="#2E79FF"/>
<stop offset="0.765625" stop-color="#2D7AFF"/>
<stop offset="0.769531" stop-color="#2D7AFF"/>
<stop offset="0.773438" stop-color="#2C7BFF"/>
<stop offset="0.777344" stop-color="#2B7CFF"/>
<stop offset="0.78125" stop-color="#2A7CFF"/>
<stop offset="0.785156" stop-color="#297DFF"/>
<stop offset="0.789062" stop-color="#287EFF"/>
<stop offset="0.792969" stop-color="#287EFF"/>
<stop offset="0.796875" stop-color="#277FFF"/>
<stop offset="0.800781" stop-color="#2680FF"/>
<stop offset="0.804688" stop-color="#2580FF"/>
<stop offset="0.808594" stop-color="#2481FF"/>
<stop offset="0.8125" stop-color="#2482FF"/>
<stop offset="0.816406" stop-color="#2382FF"/>
<stop offset="0.820312" stop-color="#2283FF"/>
<stop offset="0.824219" stop-color="#2184FF"/>
<stop offset="0.828125" stop-color="#2084FF"/>
<stop offset="0.832031" stop-color="#1F85FF"/>
<stop offset="0.835938" stop-color="#1F85FF"/>
<stop offset="0.839844" stop-color="#1E86FF"/>
<stop offset="0.84375" stop-color="#1D87FF"/>
<stop offset="0.847656" stop-color="#1C87FF"/>
<stop offset="0.851562" stop-color="#1B88FF"/>
<stop offset="0.855469" stop-color="#1A89FF"/>
<stop offset="0.859375" stop-color="#1A89FF"/>
<stop offset="0.863281" stop-color="#198AFF"/>
<stop offset="0.867188" stop-color="#188BFF"/>
<stop offset="0.871094" stop-color="#178BFF"/>
<stop offset="0.875" stop-color="#168CFF"/>
<stop offset="0.878906" stop-color="#168CFF"/>
<stop offset="0.882812" stop-color="#158DFF"/>
<stop offset="0.890625" stop-color="#158DFF"/>
<stop offset="0.90625" stop-color="#158DFF"/>
<stop offset="0.9375" stop-color="#158DFF"/>
<stop offset="1" stop-color="#158DFF"/>
</linearGradient>
</defs>
</svg>
